<svg width="380" height="220" viewBox="0 0 380 220" fill="none" xmlns="http://www.w3.org/2000/svg">
  <defs>
    <linearGradient id="growth-bg" x1="190" y1="0" x2="190" y2="220" gradientUnits="userSpaceOnUse">
      <stop stop-color="#FFFFFF"/>
      <stop offset="1" stop-color="#FCFCFD"/>
    </linearGradient>
    <linearGradient id="growth-bar" x1="0" y1="78" x2="0" y2="198" gradientUnits="userSpaceOnUse">
      <stop stop-color="#DF0515"/>
      <stop offset="1" stop-color="#7C0316"/>
    </linearGradient>
  </defs>

  <rect x="1.2" y="1.2" width="377.6" height="217.6" rx="22" fill="url(#growth-bg)" stroke="#F1B8BE" stroke-width="2.4"/>

  <text x="26" y="34" fill="#969CAB" font-family="Inter, Arial, sans-serif" font-size="18" font-weight="700" letter-spacing="0.06em">GROWTH</text>
  <text x="26" y="66" fill="#1F2937" font-family="Inter, Arial, sans-serif" font-size="34" font-weight="800">Aumento Médio</text>
  <text x="26" y="93" fill="#1F2937" font-family="Inter, Arial, sans-serif" font-size="26" font-weight="700">(%) por campanha</text>

  <rect x="254" y="20" width="105" height="46" rx="13" fill="#FFF5F6" stroke="#F5C6CD"/>
  <text x="267" y="48" fill="#DF0515" font-family="Inter, Arial, sans-serif" font-size="28" font-weight="800">+85%</text>

  <line x1="110" y1="198" x2="352" y2="198" stroke="#EEF1F5" stroke-width="2"/>
  <line x1="110" y1="162" x2="352" y2="162" stroke="#F3F5F8" stroke-width="2"/>
  <line x1="110" y1="126" x2="352" y2="126" stroke="#F3F5F8" stroke-width="2"/>

  <text x="24" y="202" fill="#7A8190" font-family="Inter, Arial, sans-serif" font-size="20" font-weight="600">$0</text>
  <text x="24" y="166" fill="#7A8190" font-family="Inter, Arial, sans-serif" font-size="20" font-weight="600">$40</text>
  <text x="16" y="130" fill="#7A8190" font-family="Inter, Arial, sans-serif" font-size="20" font-weight="600">$120</text>

  <rect x="118" y="167" width="20" height="31" rx="6.5" fill="url(#growth-bar)"/>
  <rect x="146" y="158" width="20" height="40" rx="6.5" fill="url(#growth-bar)"/>
  <rect x="174" y="146" width="20" height="52" rx="6.5" fill="url(#growth-bar)"/>
  <rect x="202" y="135" width="20" height="63" rx="6.5" fill="url(#growth-bar)"/>
  <rect x="230" y="122" width="20" height="76" rx="6.5" fill="url(#growth-bar)"/>
  <rect x="258" y="108" width="20" height="90" rx="6.5" fill="url(#growth-bar)"/>
  <rect x="286" y="104" width="20" height="94" rx="6.5" fill="url(#growth-bar)"/>
  <rect x="314" y="100" width="20" height="98" rx="6.5" fill="url(#growth-bar)"/>
  <rect x="342" y="95" width="20" height="103" rx="6.5" fill="url(#growth-bar)"/>
</svg>
